<?xml version="1.0" encoding="UTF-8" standalone="no"?>
<svg
   xmlns:dc="http://purl.org/dc/elements/1.1/"
   xmlns:cc="http://creativecommons.org/ns#"
   xmlns:rdf="http://www.w3.org/1999/02/22-rdf-syntax-ns#"
   xmlns:svg="http://www.w3.org/2000/svg"
   xmlns="http://www.w3.org/2000/svg"
   xmlns:sodipodi="http://sodipodi.sourceforge.net/DTD/sodipodi-0.dtd"
   xmlns:inkscape="http://www.inkscape.org/namespaces/inkscape"
   sodipodi:docname="drawing-1.svg"
   inkscape:version="1.0 (4035a4fb49, 2020-05-01)"
   id="svg8"
   version="1.1"
   viewBox="0 0 210 297"
   height="1122.5197"
   width="793.70081">
  <defs
     id="defs2" />
  <sodipodi:namedview
     inkscape:window-maximized="1"
     inkscape:window-y="-8"
     inkscape:window-x="-8"
     inkscape:window-height="705"
     inkscape:window-width="1366"
     showborder="false"
     units="px"
     showgrid="false"
     inkscape:document-rotation="0"
     inkscape:current-layer="layer1"
     inkscape:document-units="mm"
     inkscape:cy="413.97949"
     inkscape:cx="231.7769"
     inkscape:zoom="0.24748737"
     inkscape:pageshadow="2"
     inkscape:pageopacity="0.0"
     borderopacity="1.0"
     bordercolor="#666666"
     pagecolor="#ffffff"
     id="base" />
  <metadata
     id="metadata5">
    <rdf:RDF>
      <cc:Work
         rdf:about="">
        <dc:format>image/svg+xml</dc:format>
        <dc:type
           rdf:resource="http://purl.org/dc/dcmitype/StillImage" />
        <dc:title></dc:title>
      </cc:Work>
    </rdf:RDF>
  </metadata>
  <g
     id="layer1"
     inkscape:groupmode="layer"
     inkscape:label="Layer 1">
    <g
       transform="matrix(0.19666573,0,0,0.19666573,116.71905,56.242857)"
       id="g1002"
       style="fill:#000000">
</g>
    <g
       transform="matrix(0.19666573,0,0,0.19666573,116.71905,56.242857)"
       id="g1004"
       style="fill:#000000">
</g>
    <g
       transform="matrix(0.19666573,0,0,0.19666573,116.71905,56.242857)"
       id="g1006"
       style="fill:#000000">
</g>
    <g
       transform="matrix(0.19666573,0,0,0.19666573,116.71905,56.242857)"
       id="g1008"
       style="fill:#000000">
</g>
    <g
       transform="matrix(0.19666573,0,0,0.19666573,116.71905,56.242857)"
       id="g1010"
       style="fill:#000000">
</g>
    <g
       transform="matrix(0.19666573,0,0,0.19666573,116.71905,56.242857)"
       id="g1012"
       style="fill:#000000">
</g>
    <g
       transform="matrix(0.19666573,0,0,0.19666573,116.71905,56.242857)"
       id="g1014"
       style="fill:#000000">
</g>
    <g
       transform="matrix(0.19666573,0,0,0.19666573,116.71905,56.242857)"
       id="g1016"
       style="fill:#000000">
</g>
    <g
       transform="matrix(0.19666573,0,0,0.19666573,116.71905,56.242857)"
       id="g1018"
       style="fill:#000000">
</g>
    <g
       transform="matrix(0.19666573,0,0,0.19666573,116.71905,56.242857)"
       id="g1020"
       style="fill:#000000">
</g>
    <g
       transform="matrix(0.19666573,0,0,0.19666573,116.71905,56.242857)"
       id="g1022"
       style="fill:#000000">
</g>
    <g
       transform="matrix(0.19666573,0,0,0.19666573,116.71905,56.242857)"
       id="g1024"
       style="fill:#000000">
</g>
    <g
       transform="matrix(0.19666573,0,0,0.19666573,116.71905,56.242857)"
       id="g1026"
       style="fill:#000000">
</g>
    <g
       transform="matrix(0.19666573,0,0,0.19666573,116.71905,56.242857)"
       id="g1028"
       style="fill:#000000">
</g>
    <g
       transform="matrix(0.19666573,0,0,0.19666573,116.71905,56.242857)"
       id="g1030"
       style="fill:#000000">
</g>
    <g
       inkscape:export-ydpi="67.195503"
       inkscape:export-xdpi="67.195503"
       id="g1562">
      <path
         d="m -97.451672,60.936363 c 0.78374,0 1.41914,-0.635397 1.41914,-1.419141 v -6.369484 c 0,-0.783744 -0.6354,-1.419141 -1.41914,-1.419141 -0.78394,0 -1.41915,0.635397 -1.41915,1.419141 v 6.369484 c 0,0.783744 0.63521,1.419141 1.41915,1.419141 z"
         id="path1119"
         style="stroke-width:0.189219" />
      <path
         d="m -72.730052,62.799979 -4.50397,4.503976 c -0.55422,0.554222 -0.55422,1.452822 0,2.006855 0.2772,0.277016 0.6405,0.415714 1.00362,0.415714 0.36311,0 0.72641,-0.138509 1.00361,-0.415714 l 4.50398,-4.503976 c 0.55422,-0.554222 0.55422,-1.452822 0,-2.006855 -0.55441,-0.554032 -1.45282,-0.554032 -2.00724,0 z"
         id="path1121"
         style="stroke-width:0.189219" />
      <path
         d="m -119.67656,109.74649 -4.50398,4.50397 c -0.55422,0.55423 -0.55422,1.45283 0,2.00686 0.27702,0.27702 0.64032,0.41571 1.00343,0.41571 0.36311,0 0.72641,-0.1385 1.00343,-0.41571 l 4.50397,-4.50398 c 0.55422,-0.55422 0.55422,-1.45282 0,-2.00685 -0.55403,-0.55422 -1.45263,-0.55422 -2.00685,0 z"
         id="path1123"
         style="stroke-width:0.189219" />
      <path
         d="m -119.67656,69.31081 c 0.27701,0.277016 0.64031,0.415714 1.00343,0.415714 0.36311,0 0.72641,-0.138509 1.00342,-0.415714 0.55422,-0.554222 0.55422,-1.452822 0,-2.006855 l -4.50397,-4.503976 c -0.55422,-0.554222 -1.45283,-0.554222 -2.00686,0 -0.55422,0.554222 -0.55422,1.452822 0,2.006855 z"
         id="path1125"
         style="stroke-width:0.189219" />
      <path
         d="m -75.226792,109.74649 c -0.55441,-0.55422 -1.45282,-0.55422 -2.00704,0 -0.55422,0.55422 -0.55422,1.45282 0,2.00685 l 4.50397,4.50398 c 0.27721,0.27702 0.64051,0.41571 1.00362,0.41571 0.36311,0 0.72641,-0.1385 1.00362,-0.41571 0.55422,-0.55422 0.55422,-1.45282 0,-2.00686 z"
         id="path1127"
         style="stroke-width:0.189219" />
      <path
         d="m -127.46311,88.109514 h -6.36967 c -0.78374,0 -1.41914,0.63539 -1.41914,1.41914 0,0.78374 0.6354,1.41914 1.41914,1.41914 h 6.36948 c 0.78375,0 1.41915,-0.6354 1.41915,-1.41914 1.9e-4,-0.78375 -0.63521,-1.41914 -1.41896,-1.41914 z"
         id="path1129"
         style="stroke-width:0.189219" />
      <path
         d="m -61.070762,88.109514 h -6.36948 c -0.78394,0 -1.41915,0.63539 -1.41915,1.41914 0,0.78374 0.63521,1.41914 1.41915,1.41914 h 6.36948 c 0.78393,0 1.41914,-0.6354 1.41914,-1.41914 0,-0.78375 -0.63521,-1.41914 -1.41914,-1.41914 z"
         id="path1131"
         style="stroke-width:0.189219" />
      <path
         d="m -86.042912,128.40006 c 0.78393,0 1.41914,-0.6354 1.41914,-1.41914 0,-0.78375 -0.63521,-1.41914 -1.41914,-1.41914 h -0.51279 v -4.7967 l 0.0271,-0.1614 c 0.28969,-1.73249 0.80986,-3.42808 1.54611,-5.03947 0.32564,-0.71298 0.0115,-1.55481 -0.70125,-1.88046 -0.71297,-0.32583 -1.555,-0.0117 -1.88045,0.70125 -0.71052,1.55557 -1.2426,3.18115 -1.59058,4.84324 h -16.637858 c -0.99548,-4.83775 -3.49336,-9.24069 -7.0976,-12.47273 -4.2578,-3.81806 -6.94187,-9.036526 -7.55759,-14.693786 -0.0848,-0.7792 -0.78469,-1.34175 -1.56446,-1.25736 -0.7792,0.0848 -1.34213,0.78526 -1.25717,1.56446 0.6916,6.35397 3.70472,12.213696 8.48438,16.499686 3.33858,2.99382 5.59539,7.14358 6.35492,11.68446 l 0.0356,0.2123 v 4.79651 h -0.46548 c -0.78374,0 -1.41914,0.63539 -1.41914,1.41914 0,0.78374 0.6354,1.41914 1.41914,1.41914 h 0.46548 v 3.49544 h -0.46548 c -0.78374,0 -1.41914,0.63539 -1.41914,1.41914 0,0.78374 0.6354,1.41914 1.41914,1.41914 h 0.46548 v 2.43335 c 0,1.67951 1.06908,3.11019 2.5607,3.65836 0.20643,2.96203 1.94252,5.57439 4.63472,6.91198 0.20284,0.10085 0.41818,0.14853 0.63029,0.14853 0.52187,0 1.024052,-0.28893 1.272118,-0.78809 0.34873,-0.70201 0.06244,-1.55368 -0.639559,-1.90241 -1.645069,-0.81743 -2.748969,-2.35445 -3.015959,-4.128 h 10.954638 c -0.2668,1.77355 -1.3707,3.31057 -3.01577,4.12781 -0.702,0.34873 -0.98829,1.20059 -0.63956,1.90241 0.24788,0.49897 0.75025,0.7879 1.27212,0.7879 0.21211,0 0.42763,-0.0477 0.63029,-0.14853 2.6922,-1.33759 4.42809,-3.94995 4.63453,-6.91179 1.4918,-0.54817 2.5607,-1.97885 2.5607,-3.65835 v -2.43336 h 0.51278 c 0.78394,0 1.41915,-0.6354 1.41915,-1.41914 0,-0.78374 -0.63521,-1.41914 -1.41915,-1.41914 h -0.51278 v -3.49525 z m -19.513948,-6.33372 h 16.162688 v 3.49544 h -16.162688 z m 16.162878,15.10061 c 0,0.58563 -0.47645,1.06208 -1.06209,1.06208 h -14.038518 c -0.58563,0 -1.06209,-0.47645 -1.06209,-1.06208 v -2.43336 h 16.162698 z m 0,-5.27164 h -16.162698 v -3.49525 h 16.162698 z"
         id="path1133"
         style="stroke-width:0.189219" />
      <path
         d="m -97.451672,96.807714 c 4.01371,0 7.27905,-3.26535 7.27905,-7.27906 0,-4.01371 -3.26534,-7.27906 -7.27905,-7.27906 -4.013718,0 -7.279068,3.26535 -7.279068,7.27906 0,4.01371 3.26535,7.27906 7.279068,7.27906 z m 0,-11.71984 c 2.44849,0 4.44077,1.9921 4.44077,4.44078 0,2.44868 -1.99209,4.44077 -4.44077,4.44077 -2.448685,0 -4.440778,-1.99209 -4.440778,-4.44077 0,-2.44868 1.992093,-4.44078 4.440778,-4.44078 z"
         id="path1135"
         style="fill:#ffcc00;stroke-width:0.189219;fill-opacity:1" />
      <path
         d="m -113.09042,85.102824 c -1.30429,0 -2.36524,1.06095 -2.36524,2.36523 v 4.12119 c 0,1.30429 1.06095,2.36524 2.36524,2.36524 h 2.8326 c 0.17692,0.51145 0.3845,1.01213 0.62197,1.49937 l -2.00364,2.00363 c -0.92226,0.92226 -0.92226,2.42276 0,3.344816 l 2.91397,2.91397 c 0.92225,0.92226 2.42275,0.92226 3.34501,0 l 2.00364,-2.00344 c 0.48723,0.23747 0.98791,0.44504 1.49937,0.62196 v 2.8326 c 0,1.30429 1.06095,2.36524 2.365231,2.36524 h 4.120997 c 1.30429,0 2.36523,-1.06095 2.36523,-2.36524 v -2.8326 c 0.51146,-0.17692 1.01214,-0.38449 1.49937,-0.62196 l 2.00364,2.00344 c 0.44656,0.44675 1.04071,0.69292 1.67251,0.69292 0.6318,0 1.22576,-0.24598 1.67269,-0.69273 l 2.91397,-2.91416 c 0.92188,-0.922246 0.92188,-2.422556 0,-3.344816 l -2.00364,-2.00363 c 0.23747,-0.48724 0.44524,-0.98792 0.62178,-1.49937 h 2.83279 c 1.30429,0 2.36524,-1.06095 2.36524,-2.36524 v -4.12119 c 0,-1.30428 -1.06095,-2.36523 -2.36524,-2.36523 h -2.83279 c -0.17673,-0.51146 -0.38431,-1.01194 -0.62178,-1.49937 l 2.00364,-2.00364 c 0.92188,-0.92225 0.92188,-2.422567 0,-3.34482 l -2.91416,-2.914159 c -0.44674,-0.446556 -1.0407,-0.692541 -1.6725,-0.692541 -0.6318,0 -1.22576,0.245985 -1.67251,0.69273 l -2.00364,2.003638 c -0.48723,-0.237469 -0.98791,-0.445231 -1.49937,-0.621962 v -2.832606 c 0,-1.304285 -1.06094,-2.365235 -2.36523,-2.365235 h -4.120997 c -1.304281,0 -2.365231,1.06095 -2.365231,2.365235 V 76.7227 c -0.51146,0.176731 -1.01214,0.384493 -1.49937,0.621962 l -2.00364,-2.003638 c -0.92226,-0.922252 -2.42276,-0.922252 -3.34501,0 l -2.91397,2.91397 c -0.92226,0.922253 -0.92226,2.42276 0,3.34501 l 2.00364,2.00364 c -0.23747,0.48724 -0.44524,0.98791 -0.62216,1.49937 h -2.83241 z m 6.20789,-2.75995 -2.41557,-2.415375 2.24508,-2.245081 2.41538,2.415567 c 0.45905,0.458669 1.16994,0.547979 1.72814,0.216656 0.87684,-0.520541 1.81952,-0.911656 2.80195,-1.162182 0.628584,-0.160268 1.068328,-0.726411 1.068328,-1.375242 v -3.414265 h 3.1749 v 3.414265 c 0,0.648642 0.43975,1.214784 1.06852,1.375242 0.98224,0.250526 1.92511,0.641452 2.80195,1.162182 0.55801,0.331513 1.26928,0.241823 1.72814,-0.216656 l 2.41538,-2.415567 2.24508,2.245081 -2.41557,2.415565 c -0.45867,0.45867 -0.54798,1.17032 -0.21665,1.72814 0.52054,0.87665 0.91146,1.81934 1.16199,2.80157 0.16027,0.62859 0.72641,1.06852 1.37524,1.06852 h 3.41445 v 3.17509 h -3.41445 c -0.64883,0 -1.21478,0.43994 -1.37524,1.06852 -0.25053,0.98243 -0.64145,1.92492 -1.16199,2.80158 -0.33133,0.55781 -0.24202,1.26927 0.21665,1.72813 l 2.41557,2.41557 -2.24508,2.245076 -2.41538,-2.415376 c -0.45905,-0.45885 -1.17032,-0.54836 -1.72814,-0.21684 -0.87665,0.52054 -1.81934,0.91146 -2.80195,1.16218 -0.62858,0.160266 -1.06852,0.726406 -1.06852,1.375046 v 3.41427 h -3.1749 v -3.41427 c 0,-0.64864 -0.439744,-1.21478 -1.068328,-1.375046 -0.98243,-0.25072 -1.9253,-0.64183 -2.80195,-1.16218 -0.55801,-0.33133 -1.26909,-0.24183 -1.72814,0.21684 l -2.41538,2.415376 -2.24508,-2.245076 2.41538,-2.41557 c 0.45885,-0.45867 0.54798,-1.17032 0.21684,-1.72813 -0.52054,-0.87647 -0.91146,-1.81915 -1.16237,-2.80177 -0.16027,-0.62858 -0.72641,-1.06833 -1.37505,-1.06833 h -3.41426 v -3.17509 h 3.41426 c 0.64864,0 1.21478,-0.43974 1.37505,-1.06833 0.25072,-0.98242 0.64183,-1.9253 1.16237,-2.80195 0.33133,-0.55801 0.24201,-1.26947 -0.21665,-1.72814 z"
         id="path1137"
         style="fill:#ffcc00;stroke-width:0.189219;fill-opacity:1" />
      <path
         d="m -78.978812,71.27263 c -4.8317,-4.888468 -11.27498,-7.627978 -18.14306,-7.713505 -6.364938,-0.07644 -12.536878,2.222375 -17.388258,6.480745 -4.80748,4.219958 -7.89837,9.978454 -8.70331,16.214724 -0.10029,0.77732 0.44864,1.48878 1.22595,1.58906 0.77674,0.10029 1.48877,-0.44863 1.58906,-1.22594 0.71638,-5.55093 3.47254,-10.68084 7.76062,-14.44478 4.32346,-3.795162 9.82746,-5.849322 15.480368,-5.775905 6.11707,0.07626 11.85607,2.516232 16.15967,6.870535 4.30737,4.358088 6.67942,10.13305 6.67942,16.2609 0,6.50118 -2.7607,12.740286 -7.57386,17.117296 -0.74117,0.67419 -1.4462,1.39946 -2.09541,2.15615 -0.51032,0.5949 -0.44201,1.49066 0.15289,2.00118 0.26755,0.22971 0.59623,0.34229 0.92339,0.34229 0.39963,0 0.79699,-0.16783 1.0776,-0.49499 0.57333,-0.66813 1.19624,-1.30902 1.85113,-1.90468 5.40371,-4.91401 8.50273,-11.918326 8.50273,-19.217246 -1.9e-4,-6.87962 -2.66325,-13.363013 -7.49893,-18.255834 z"
         id="path1139"
         style="stroke-width:0.189219" />
      <path
         style="opacity:0.266833;fill:#ffff00;stroke-width:0.944941;stroke-linecap:round;stroke-linejoin:round"
         d="m -98.884914,102.71738 c -0.08634,-2.33246 -0.198197,-2.5153 -1.916616,-3.13289 -0.64442,-0.231598 -1.43684,-0.58161 -1.76094,-0.777806 -1.05918,-0.641189 -1.48553,-0.494871 -3.08039,1.057161 l -1.4529,1.413885 -1.01857,-1.03139 -1.01857,-1.03138 1.35925,-1.401789 c 1.55455,-1.603216 1.65707,-1.994183 0.91256,-3.47998 -0.24566,-0.490278 -0.55379,-1.23159 -0.68473,-1.647365 -0.45565,-1.446874 -0.75007,-1.606399 -2.96478,-1.606399 h -1.95143 v -1.511903 -1.511906 h 1.84783 c 2.21463,0 2.52503,-0.162285 2.98234,-1.559253 0.17862,-0.545648 0.52562,-1.393222 0.77111,-1.883497 0.70667,-1.411335 0.62531,-1.704623 -0.9129,-3.290991 l -1.35925,-1.401791 1.02291,-1.035773 1.0229,-1.035769 1.23403,1.219133 c 1.68758,1.667209 2.01324,1.767711 3.48091,1.07427 0.64041,-0.302583 1.52233,-0.657389 1.9598,-0.788461 1.27146,-0.38094 1.41837,-0.663631 1.51884,-2.922635 l 0.08816,-1.982375 h 1.375437 1.375434 l 0.06445,1.965042 c 0.07045,2.147789 0.273461,2.607228 1.259536,2.850404 0.278194,0.0686 1.156642,0.417467 1.952104,0.775252 1.784413,0.802593 2.023237,0.740829 3.756483,-0.971497 l 1.234032,-1.219133 1.028232,1.041164 1.028231,1.041165 -1.36457,1.373737 c -1.56497,1.575486 -1.665173,1.958118 -0.910137,3.475437 0.249939,0.50227 0.562787,1.280438 0.695219,1.729259 0.387345,1.312717 0.845616,1.546312 3.033575,1.546312 h 1.864394 v 1.511906 1.511903 h -1.902304 c -1.046268,0 -2.059701,0.08424 -2.252072,0.18719 -0.192371,0.102955 -0.496197,0.634482 -0.675166,1.181174 -0.17897,0.546693 -0.526254,1.395122 -0.77174,1.8854 -0.740129,1.478161 -0.638011,1.880515 0.872691,3.438506 l 1.319028,1.360319 -1.031023,1.018214 -1.031023,1.01821 -1.401792,-1.359234 c -0.98734,-0.957374 -1.542881,-1.359241 -1.879002,-1.359241 -0.262469,0 -1.098317,0.297656 -1.857444,0.661458 -0.759129,0.363802 -1.510199,0.664162 -1.669047,0.667467 -0.381527,0.0079 -0.836586,0.36893 -1.10839,0.87926 -0.12306,0.23105 -0.219858,1.20873 -0.219858,2.22061 v 1.80781 h -1.395976 -1.395976 z m 2.902789,-5.988853 c 2.271797,-0.475305 4.144388,-1.955643 5.204489,-4.1143 0.469037,-0.95509 0.521703,-1.262647 0.521703,-3.046703 0,-1.757415 -0.05793,-2.107972 -0.5065,-3.065023 -0.707263,-1.508993 -2.034379,-2.860723 -3.532926,-3.598455 -1.152205,-0.56723 -1.384453,-0.612564 -3.138146,-0.612564 -1.686375,0 -2.022464,0.05941 -3.067775,0.542269 -1.36814,0.631984 -3.09064,2.317597 -3.64197,3.563972 -1.53935,3.479951 -0.16477,7.748781 3.06049,9.504532 1.728121,0.940744 3.320534,1.198705 5.100635,0.826272 z"
         id="path1449" />
      <path
         style="opacity:0.266833;fill:#ffcc00;stroke-width:0.944941;stroke-linecap:round;stroke-linejoin:round;fill-opacity:1"
         d="m -98.676523,104.63932 c -0.0058,-0.026 -0.07546,-0.91291 -0.154702,-1.97094 -0.08958,-1.19608 -0.245927,-2.04642 -0.413348,-2.24815 -0.386378,-0.465553 -3.714187,-1.970265 -4.357437,-1.970265 -0.40315,0 -0.93381,0.345128 -2.06981,1.346155 -0.84021,0.74039 -1.59418,1.27192 -1.67548,1.18118 -0.0813,-0.0907 -0.46634,-0.52531 -0.85564,-0.9657 l -0.70781,-0.800715 0.89851,-0.994674 c 1.14129,-1.263431 1.59635,-2.004746 1.59667,-2.601069 2.7e-4,-0.624004 -1.45237,-3.976327 -1.85619,-4.283392 -0.20669,-0.157168 -0.98617,-0.24238 -2.25315,-0.246311 l -1.93712,-0.006 v -1.511904 -1.511906 h 1.86228 c 1.71483,0 1.90188,-0.03669 2.36235,-0.463446 0.27504,-0.254895 0.5107,-0.552551 0.52369,-0.661459 0.0361,-0.302117 0.0804,-0.428178 0.40148,-1.141079 0.16339,-0.362773 0.25713,-0.724212 0.20831,-0.803201 -0.0488,-0.07899 -0.007,-0.143613 0.0929,-0.143613 0.22219,0 0.5966,-1.026419 0.5966,-1.635543 0,-0.278318 -0.46893,-0.982898 -1.25094,-1.879568 l -1.25095,-1.434354 0.91309,-0.927029 0.91309,-0.927028 0.76308,0.727511 c 1.55472,1.482247 2.10824,1.790962 2.98731,1.66609 1.04158,-0.147955 3.453378,-1.173189 3.966167,-1.685981 0.331253,-0.33125 0.426278,-0.733557 0.543904,-2.302663 0.07839,-1.045705 0.147304,-1.922545 0.153146,-1.948532 0.0058,-0.02598 0.556655,-0.04725 1.224026,-0.04725 1.171477,0 1.21715,0.01797 1.321681,0.519718 0.05955,0.285843 0.124955,1.072508 0.145347,1.74814 0.05943,1.969293 0.234735,2.220182 2.066472,2.95743 0.871305,0.350692 1.897539,0.711409 2.280513,0.801598 0.832389,0.196021 1.253175,-0.02082 2.816254,-1.451296 l 1.055727,-0.96616 0.908653,0.922525 0.908656,0.922526 -1.255678,1.375809 c -1.533234,1.679924 -1.555221,1.886628 -0.478118,4.494414 0.916382,2.218663 1.016897,2.282438 3.59737,2.282438 h 1.672693 v 1.511906 1.511904 l -1.889881,0.02363 c -1.039435,0.01299 -1.996186,0.03425 -2.126115,0.04725 -0.292608,0.02926 -1.295705,2.014578 -1.181659,2.338729 0.04571,0.129929 0.0065,0.236233 -0.08721,0.236233 -0.174921,0 -0.48922,0.738572 -0.422222,0.992188 0.02058,0.07796 -0.0476,0.141743 -0.151545,0.141743 -0.103942,0 -0.188987,0.306678 -0.188987,0.681508 0,0.702397 0.505862,1.50975 1.82757,2.916793 l 0.628414,0.668986 -0.930714,0.916724 -0.930717,0.91672 -1.354079,-1.20344 c -1.150848,-1.022813 -1.460193,-1.203436 -2.061065,-1.203436 -0.726611,0 -2.282089,0.589333 -2.282089,0.86463 0,0.08489 -0.127566,0.105402 -0.283482,0.04557 -0.155914,-0.05983 -0.283541,-0.0359 -0.283615,0.05318 -7.4e-5,0.08908 -0.223245,0.174882 -0.495935,0.190675 -0.272693,0.01579 -0.672621,0.205533 -0.88873,0.421641 -0.418121,0.41812 -0.442783,0.57195 -0.480714,2.99868 l -0.02437,1.55915 h -1.322917 c -0.727604,0 -1.327697,-0.0213 -1.333537,-0.0473 z m 3.128923,-7.975925 c 1.684472,-0.362895 3.637812,-1.950752 4.660609,-3.788579 0.608449,-1.093306 0.631058,-1.208405 0.631058,-3.212799 0,-1.143378 -0.0777,-2.248958 -0.172665,-2.456844 -0.09497,-0.207888 -0.184192,-0.420499 -0.198279,-0.472472 -0.156633,-0.577884 -0.347839,-0.94494 -0.492238,-0.94494 -0.09694,0 -0.176252,-0.08875 -0.176252,-0.197221 0,-0.298249 -1.219267,-1.554149 -2.175497,-2.240862 -0.466572,-0.335066 -0.848313,-0.559445 -0.848313,-0.498618 0,0.06082 -0.229999,-0.04019 -0.511111,-0.224493 -0.735124,-0.481947 -3.765587,-0.531823 -5.075036,-0.08352 -0.525766,0.179999 -1.109246,0.452168 -1.296616,0.604819 -1.36915,1.115425 -2.61609,2.433717 -2.94536,3.1139 -0.93067,1.922504 -0.84683,4.675711 0.20516,6.737789 0.41501,0.81348 1.81305,2.318985 2.68245,2.888639 1.329484,0.871114 3.745156,1.198951 5.71209,0.775205 z"
         id="path1451" />
    </g>
    <g
       inkscape:export-ydpi="67.195503"
       inkscape:export-xdpi="67.195503"
       transform="matrix(0.84708135,0,0,0.84708135,12.801582,11.502164)"
       id="g1577">
      <g
         fill="#00e9cc"
         id="g1493"
         transform="matrix(0.23212823,0,0,0.23212823,-3.922891,44.853929)"
         style="fill:#00aad4;fill-opacity:1">
        <path
           d="M 39.5,0 C 26.542969,0 16,10.542969 16,23.5 16,36.457031 26.542969,47 39.5,47 52.457031,47 63,36.457031 63,23.5 63,10.542969 52.457031,0 39.5,0 Z m 0,0"
           id="path1487"
           style="fill:#00aad4;fill-opacity:1" />
        <path
           d="M 167.5,24.5 C 154.54297,24.5 144,35.042969 144,48 144,60.957031 154.54297,71.5 167.5,71.5 180.45703,71.5 191,60.957031 191,48 191,35.042969 180.45703,24.5 167.5,24.5 Z m 0,0"
           id="path1489"
           style="fill:#00aad4;fill-opacity:1" />
        <path
           d="m 135.5,176 v 264.5 c 0,17.67187 -14.32812,32 -32,32 -17.671875,0 -32,-14.32813 -32,-32 V 176"
           id="path1491"
           style="fill:#00aad4;fill-opacity:1" />
      </g>
      <path
         d="m 20.102381,156.27548 c -5.056043,0 -9.169065,-4.11302 -9.169065,-9.16907 v -24.2574 h 3.481923 v 24.2574 c 0,3.13555 2.551597,5.68715 5.687142,5.68715 3.136451,0 5.687141,-2.5516 5.687141,-5.68715 v -31.6855 h 3.481924 v 31.6855 c 0,5.05605 -4.113022,9.16907 -9.169065,9.16907 z m 0,0"
         id="path1495"
         style="stroke-width:0.232128" />
      <path
         d="m 25.789522,85.708497 h 3.481924 v 22.284313 h -3.481924 z m 0,0"
         id="path1497"
         style="stroke-width:0.232128" />
      <path
         d="m 16.388329,106.25185 h 3.714052 v 3.48192 h -3.714052 z m 0,0"
         id="path1499"
         style="stroke-width:0.232128" />
      <path
         d="m 16.388329,95.109691 h 3.714052 v 3.481923 h -3.714052 z m 0,0"
         id="path1501"
         style="stroke-width:0.232128" />
      <path
         d="m 16.388329,83.967536 h 3.714052 v 3.481923 h -3.714052 z m 0,0"
         id="path1503"
         style="stroke-width:0.232128" />
      <path
         d="M 44.127653,76.307304 V 65.397277 H -3.922891 v 10.910027 h 7.4281034 v 70.799106 c 0,9.15184 7.4453316,16.59717 16.5971686,16.59717 9.151836,0 16.597168,-7.44533 16.597168,-16.59717 V 81.994446 h -3.481923 v 65.111964 c 0,7.23134 -5.883908,13.11525 -13.115245,13.11525 -7.231339,0 -13.1152452,-5.88391 -13.1152452,-13.11525 v -37.37264 h 5.6871412 v -3.48192 H 6.9871358 V 98.591614 H 12.674277 V 95.109691 H 6.9871358 V 87.449459 H 12.674277 V 83.967536 H 6.9871358 V 76.307304 Z M -0.44096755,72.825381 v -3.94618 H 40.645729 v 3.94618 z m 0,0"
         id="path1505"
         style="stroke-width:0.232128" />
      <path
         d="m 46.100743,61.683226 h 3.714051 v 3.481923 h -3.714051 z m 0,0"
         id="path1507"
         style="stroke-width:0.232128" />
      <path
         d="m 16.388329,50.541071 h 3.714052 v 3.481923 h -3.714052 z m 0,0"
         id="path1509"
         style="stroke-width:0.232128" />
      <path
         d="m -2.1819293,57.969174 h 3.7140517 v 3.481923 h -3.7140517 z m 0,0"
         id="path1511"
         style="stroke-width:0.232128" />
    </g>
    <g
       inkscape:export-ydpi="67.195503"
       inkscape:export-xdpi="67.195503"
       transform="matrix(0.9334486,0,0,0.9334486,1.6115845,-1.172409)"
       id="g1778">
      <path
         id="path1413"
         d="m 418.33528,143.36855 h -6.05115 c 0.46624,-0.90829 0.73104,-1.93604 0.73104,-3.02521 l -0.002,-49.209858 c 0,-1.001875 -0.81204,-1.813676 -1.81367,-1.813676 -1.00188,0 -1.81368,0.812043 -1.81368,1.813676 l 0.002,49.209858 c 0,1.66689 -1.35591,3.02279 -3.0228,3.02279 l -94.30871,0.002 c -1.66689,0 -3.0228,-1.3559 -3.0228,-3.02279 l -0.002,-62.871674 c 0,-1.666889 1.3559,-3.022793 3.02279,-3.022793 l 48.12504,-0.0022 c -0.62367,1.100781 -0.71677,2.438548 -0.22683,3.627352 l -6.42864,2.42e-4 c -0.004,0 -0.007,-4.84e-4 -0.0109,-4.84e-4 h -3.28275 c -0.005,0 -0.01,4.84e-4 -0.0147,4.84e-4 l -35.74296,0.0019 c -1.00187,0 -1.81367,0.812043 -1.81367,1.813676 l 0.002,38.302887 c 0,1.00188 0.81204,1.81368 1.81368,1.81368 1.00187,0 1.81367,-0.81204 1.81367,-1.81368 l -0.002,-36.489211 29.78515,-0.0015 c -0.24739,0.988332 -0.52428,2.197449 -0.65559,3.129436 -0.0215,0.153558 -0.11849,0.293332 -0.25947,0.374585 l -3.03295,1.746932 c -0.14123,0.08174 -0.31171,0.09625 -0.45681,0.03748 -1.02992,-0.415211 -2.50214,-0.850977 -3.55625,-1.143341 -1.82698,-0.506862 -3.76761,0.284626 -4.71677,1.924672 l -1.63908,2.832236 c -0.95206,1.644883 -0.66743,3.723114 0.69186,5.053868 0.77891,0.762227 1.89058,1.814401 2.76598,2.496343 0.12139,0.09431 0.1937,0.247144 0.1937,0.408924 v 3.489506 c 0,0.16178 -0.0726,0.3151 -0.1937,0.40941 -0.8754,0.6817 -1.98731,1.73388 -2.76598,2.4961 -1.35929,1.33076 -1.64392,3.40923 -0.69186,5.05387 l 1.63908,2.83224 c 0.94916,1.64004 2.88883,2.4325 4.71725,1.92443 1.05363,-0.29213 2.52585,-0.72789 3.5565,-1.14334 0.14364,-0.058 0.31437,-0.044 0.45584,0.0375 l 3.03319,1.74693 c 0.14098,0.0812 0.23795,0.22127 0.25947,0.37459 0.15477,1.09763 0.51146,2.58243 0.78351,3.63412 0.47543,1.83907 2.13288,3.12363 4.03071,3.12363 h 3.28276 c 1.89783,0 3.55529,-1.28456 4.03047,-3.12339 0.27229,-1.05217 0.62898,-2.53673 0.78375,-3.63436 0.0218,-0.15332 0.11873,-0.29334 0.25947,-0.37459 l 3.03344,-1.74693 c 0.14122,-0.0815 0.31147,-0.0958 0.45632,-0.0372 1.02992,0.41521 2.50215,0.85097 3.55625,1.14334 1.82674,0.50614 3.76761,-0.28463 4.71677,-1.92467 l 1.63908,-2.83224 c 0.95206,-1.64488 0.66743,-3.72311 -0.69186,-5.05387 -0.77891,-0.76222 -1.89057,-1.8144 -2.76597,-2.49586 -0.1214,-0.0948 -0.19395,-0.24787 -0.19395,-0.40965 v -3.489506 c 0,-0.16178 0.0723,-0.314855 0.1937,-0.409166 0.8754,-0.6817 1.98731,-1.733874 2.76598,-2.496101 1.35929,-1.330754 1.64392,-3.409227 0.69186,-5.053868 l -1.63908,-2.832236 c -0.94916,-1.640046 -2.88858,-2.432018 -4.71725,-1.92443 -1.05363,0.292122 -2.52585,0.727888 -3.5565,1.143341 -0.14364,0.05755 -0.31437,0.04377 -0.45584,-0.03748 l -3.03343,-1.747416 c -0.14074,-0.08101 -0.23771,-0.220785 -0.25923,-0.374101 -0.13156,-0.932229 -0.40844,-2.14183 -0.65559,-3.130162 l 4.35041,-2.42e-4 c 1.00139,1.439091 2.81506,2.107491 4.53032,1.630857 1.0541,-0.292364 2.52681,-0.72813 3.55649,-1.143341 0.14365,-0.0578 0.31437,-0.04401 0.45584,0.03748 l 3.03319,1.746932 c 0.14098,0.08125 0.23796,0.221269 0.25948,0.374585 0.15501,1.097636 0.51145,2.582432 0.78351,3.634122 0.47542,1.839067 2.13288,3.123633 4.03071,3.123633 h 3.28275 c 1.89783,0 3.55529,-1.284566 4.03047,-3.123391 0.2723,-1.052174 0.62923,-2.536728 0.78375,-3.634364 0.0218,-0.153316 0.11874,-0.293332 0.25948,-0.374585 l 3.03319,-1.746932 c 0.14171,-0.0815 0.31195,-0.09576 0.45656,-0.03724 1.02993,0.415211 2.50215,0.850977 3.55626,1.143341 1.71428,0.475183 3.52844,-0.192008 4.52983,-1.631099 h 3.52724 l 0.002,54.407849 -85.84441,0.002 -4.9e-4,-10.09057 c 0,-1.00187 -0.81204,-1.81367 -1.81367,-1.81367 -1.00188,0 -1.81368,0.81204 -1.81368,1.81367 l 4.9e-4,11.90424 c 0,1.00188 0.81204,1.81368 1.81367,1.81368 l 89.47225,-0.002 c 0.48099,0 0.94238,-0.19104 1.28263,-0.53129 0.34,-0.34 0.53104,-0.80116 0.53104,-1.28239 l -0.002,-58.035196 c 0,-1.001875 -0.81205,-1.813676 -1.81368,-1.813676 h -3.27163 c 0.48994,-1.188804 0.39659,-2.526571 -0.22707,-3.627351 h 5.91693 c 1.66689,0 3.0228,1.355904 3.0228,3.022792 l 2.4e-4,5.968444 c 0,1.001875 0.81204,1.813676 1.81367,1.813676 1.00188,0 1.81368,-0.812043 1.81368,-1.813676 l -2.4e-4,-5.968444 c 0,-3.666768 -2.98338,-6.650144 -6.65015,-6.650144 h -9.54259 c -0.0261,-0.0636 -0.0423,-0.132035 -0.0423,-0.203373 V 67.12841 c 0,-0.16178 0.0723,-0.314612 0.19419,-0.409165 0.87515,-0.682184 1.98706,-1.734116 2.76573,-2.496102 1.35929,-1.330754 1.64392,-3.409226 0.69186,-5.053867 l -1.63908,-2.832236 c -0.94916,-1.640047 -2.88907,-2.432502 -4.71725,-1.924431 -1.05484,0.292606 -2.52802,0.728372 -3.5565,1.143341 -0.14364,0.05755 -0.31437,0.04377 -0.45584,-0.03748 l -3.03343,-1.747417 c -0.14074,-0.08101 -0.23771,-0.220784 -0.25923,-0.3741 -0.15501,-1.098604 -0.5117,-2.582916 -0.78351,-3.634123 -0.47543,-1.839067 -2.13288,-3.123633 -4.03071,-3.123633 h -3.28276 c -1.89783,0 -3.55529,1.284566 -4.03047,3.123391 -0.27205,1.051691 -0.62898,2.535761 -0.78375,3.634123 -0.0215,0.153558 -0.11849,0.293332 -0.25947,0.374584 l -3.03295,1.746933 c -0.14195,0.08198 -0.31244,0.09576 -0.45608,0.03772 -1.02751,-0.414485 -2.50118,-0.850735 -3.55698,-1.143583 -1.82698,-0.50662 -3.76761,0.284626 -4.71677,1.924673 l -1.63908,2.832236 c -0.95206,1.644883 -0.66743,3.723113 0.69186,5.053867 0.77819,0.761744 1.88961,1.813192 2.76597,2.496344 0.1214,0.09431 0.19371,0.247143 0.19371,0.408923 v 3.489512 c 0,0.0711 -0.0162,0.139774 -0.0423,0.203373 l -51.75094,0.0024 c -3.66677,0 -6.65015,2.983375 -6.65015,6.650144 l 0.002,62.871673 c 0,1.0882 0.26456,2.11523 0.72983,3.02279 h -6.05236 c -1.5334,0 -2.78097,1.24757 -2.78097,2.78097 v 4.83647 c 0,4.46696 3.63412,8.10108 8.10108,8.10108 h 84.72647 c 1.00187,0 1.81367,-0.8118 1.81367,-1.81367 0,-1.00188 -0.8118,-1.81368 -1.81367,-1.81368 h -84.72647 c -2.46684,0 -4.47373,-2.00689 -4.47373,-4.47373 v -3.99009 h 45.34189 v 1.08821 c 0,2.60008 2.11547,4.71555 4.71556,4.71555 h 16.44399 c 2.60009,0 4.71556,-2.11547 4.71556,-4.71555 v -1.08821 h 45.34189 v 3.99009 c 0,2.46684 -2.00689,4.47373 -4.47373,4.47373 h -15.0569 c -1.00187,0 -1.81367,0.8118 -1.81367,1.81368 0,1.00187 0.8118,1.81367 1.81367,1.81367 h 15.0569 c 4.46696,0 8.10108,-3.63412 8.10108,-8.10108 v -4.83647 c 0,-1.5334 -1.24757,-2.78097 -2.78097,-2.78097 z M 354.03129,82.107906 c 0.35137,1.359048 0.60117,2.506983 0.70346,3.232696 0.1792,1.270056 0.92329,2.367451 2.04099,3.010943 l 3.03344,1.747416 c 1.11577,0.642283 2.43613,0.736352 3.62251,0.258026 0.68146,-0.274712 1.80715,-0.634061 3.16886,-1.012031 0.23626,-0.06602 0.48655,0.03531 0.60867,0.246176 l 1.63908,2.832236 c 0.12115,0.209177 0.0842,0.474457 -0.0902,0.644943 -1.00623,0.985188 -1.87921,1.776193 -2.45766,2.22671 -1.01154,0.788102 -1.59168,1.98005 -1.59168,3.270662 v 3.489507 c 0,1.29037 0.57989,2.48256 1.59168,3.27067 0.57869,0.45076 1.45143,1.24176 2.45766,2.22695 0.17435,0.17048 0.21135,0.43576 0.0902,0.64494 l -1.63908,2.83224 c -0.12212,0.21063 -0.37338,0.31098 -0.60819,0.24642 -1.36243,-0.37797 -2.48788,-0.73757 -3.16885,-1.01204 -1.1876,-0.47881 -2.50795,-0.38474 -3.62349,0.25803 l -3.03319,1.74693 c -1.11795,0.64398 -1.8618,1.74161 -2.04099,3.01119 v 2.4e-4 c -0.10229,0.72547 -0.35209,1.87341 -0.7037,3.23269 -0.0614,0.23772 -0.27471,0.40409 -0.51871,0.40409 h -3.28276 c -0.244,0 -0.45729,-0.16637 -0.51895,-0.40433 -0.35137,-1.35904 -0.60117,-2.50698 -0.70346,-3.23269 -0.1792,-1.26958 -0.92304,-2.36721 -2.04099,-3.01119 l -3.03295,-1.74693 c -0.64567,-0.37192 -1.35953,-0.56006 -2.07654,-0.56006 -0.52258,0 -1.04661,0.10011 -1.5467,0.30179 -0.68146,0.27471 -1.80715,0.63406 -3.16886,1.01203 -0.23674,0.0663 -0.48679,-0.0355 -0.60867,-0.24617 l -1.63908,-2.83224 c -0.12115,-0.20918 -0.0842,-0.47446 0.0902,-0.64494 1.00623,-0.98519 1.87921,-1.77619 2.4579,-2.2272 1.01154,-0.7881 1.59144,-1.98005 1.59144,-3.27042 v -3.489507 c 0,-1.290612 -0.58014,-2.482802 -1.59169,-3.27042 -0.57868,-0.450759 -1.45142,-1.241764 -2.45765,-2.226952 -0.17435,-0.170486 -0.21135,-0.435766 -0.0902,-0.644943 l 1.63908,-2.832236 c 0.12212,-0.210628 0.37362,-0.311227 0.60819,-0.246418 1.36243,0.37797 2.48788,0.737561 3.16885,1.012031 1.18663,0.478568 2.50699,0.384741 3.62348,-0.258026 l 3.03295,-1.746932 c 1.11795,-0.643734 1.86204,-1.741129 2.04124,-3.011427 0.10229,-0.725471 0.35209,-1.873406 0.7037,-3.232696 0.0607,-0.235294 0.27036,-0.399976 0.51097,-0.403361 l 3.29606,-2.42e-4 c 0.24206,0.0027 0.45245,0.167584 0.51363,0.403845 z m 9.39387,-20.47664 c -0.17435,-0.170485 -0.21135,-0.435766 -0.0902,-0.644943 l 1.63908,-2.832236 c 0.12188,-0.210628 0.37314,-0.311227 0.60819,-0.246418 1.36461,0.378454 2.48981,0.738045 3.16885,1.012031 1.18663,0.47881 2.50723,0.384741 3.62348,-0.258025 l 3.03295,-1.746933 c 1.11795,-0.643734 1.86204,-1.741128 2.04124,-3.011427 0.10229,-0.725954 0.35209,-1.87389 0.7037,-3.232695 0.0614,-0.237713 0.27471,-0.404087 0.51871,-0.404087 h 3.28276 c 0.244,0 0.45728,0.166374 0.51895,0.404328 0.35137,1.358564 0.60117,2.5065 0.70346,3.232696 0.17919,1.270057 0.92328,2.367451 2.04099,3.010943 l 3.03368,1.747416 c 1.11601,0.642525 2.43637,0.736836 3.62275,0.257784 0.67977,-0.274228 1.80522,-0.633335 3.16862,-1.011789 0.23577,-0.06602 0.48679,0.03531 0.60867,0.246176 l 1.63907,2.832236 c 0.12116,0.209177 0.0842,0.474458 -0.0902,0.644943 -1.00598,0.984947 -1.87896,1.776193 -2.45692,2.226468 -1.01203,0.788103 -1.59241,1.980051 -1.59241,3.270904 v 3.489512 c 0,1.290611 0.58014,2.482801 1.59168,3.270662 0.57893,0.450758 1.45167,1.242005 2.45765,2.226952 0.17436,0.170485 0.21136,0.435765 0.0902,0.644943 l -1.63907,2.832235 c -0.12188,0.210629 -0.37314,0.311227 -0.60819,0.246419 -1.36243,-0.37797 -2.48788,-0.737562 -3.16885,-1.012031 -1.18639,-0.478569 -2.50747,-0.384983 -3.62349,0.258025 l -3.03319,1.746932 c -1.11795,0.643976 -1.8618,1.741613 -2.04099,3.011186 v 2.42e-4 c -0.10229,0.72547 -0.35209,1.873406 -0.7037,3.232695 -0.0614,0.237712 -0.27471,0.404087 -0.51871,0.404087 h -3.28276 c -0.244,0 -0.45729,-0.166375 -0.51895,-0.404329 -0.35137,-1.359047 -0.60117,-2.506983 -0.70346,-3.232695 -0.1792,-1.269573 -0.92304,-2.36721 -2.04099,-3.011186 l -3.03295,-1.746932 c -0.64567,-0.371924 -1.35954,-0.560063 -2.07654,-0.560063 -0.52258,0 -1.04661,0.100115 -1.5467,0.301796 -0.6805,0.274469 -1.80618,0.633819 -3.16886,1.012031 -0.23626,0.06602 -0.48679,-0.03531 -0.60867,-0.246177 l -0.32114,-0.554984 c -0.0102,-0.0191 -0.0215,-0.03724 -0.0322,-0.05562 l -1.28578,-2.221631 c -0.12115,-0.209178 -0.0842,-0.474458 0.0902,-0.644943 1.0055,-0.984464 1.87849,-1.775468 2.4579,-2.227194 1.01154,-0.788103 1.59144,-1.98005 1.59144,-3.27042 v -3.489512 c 0,-1.290612 -0.58014,-2.482801 -1.59144,-3.27042 -0.57965,-0.451484 -1.4524,-1.242489 -2.4579,-2.226952 z m 5.0945,86.452844 c 0,0.59996 -0.48824,1.0882 -1.08821,1.0882 h -16.44399 c -0.59996,0 -1.08821,-0.48824 -1.08821,-1.0882 v -1.08821 h 18.62041 z"
         style="stroke-width:0.241823" />
      <path
         id="path1415"
         d="m 380.31266,78.749946 c 5.45675,0 9.89638,-4.430447 9.89638,-9.876552 0,-5.445864 -4.43939,-9.87631 -9.89638,-9.87631 -5.45699,0 -9.89638,4.430446 -9.89638,9.87631 0,5.446105 4.43939,9.876552 9.89638,9.876552 z m -2.82619,-4.301071 h 5.65238 c -0.85001,0.42972 -1.80981,0.67372 -2.82619,0.67372 -1.01638,0 -1.97642,-0.244 -2.82619,-0.67372 z m 2.82619,-11.824198 c 3.45687,0 6.26903,2.803217 6.26903,6.248959 0,0.680249 -0.111,1.334623 -0.31364,1.948129 h -11.91078 c -0.2024,-0.613506 -0.31364,-1.26788 -0.31364,-1.948129 0,-3.445984 2.81216,-6.248959 6.26903,-6.248959 z"
         style="stroke-width:0.241823" />
      <path
         id="path1417"
         d="m 341.9747,100.31044 c 0,5.4461 4.43939,9.87655 9.89638,9.87655 5.45699,0 9.89638,-4.43045 9.89638,-9.87655 0,-5.445865 -4.43939,-9.876312 -9.89638,-9.876312 -5.45699,0 -9.89638,4.430689 -9.89638,9.876312 z m 16.16541,0 c 0,3.44574 -2.81216,6.2492 -6.26903,6.2492 -3.45686,0 -6.26903,-2.80346 -6.26903,-6.2492 0,-3.445743 2.81217,-6.24896 6.26903,-6.24896 3.45687,0 6.26903,2.803217 6.26903,6.24896 z"
         style="stroke-width:0.241823" />
      <path
         style="opacity:0.952618;fill:#bc5090;fill-opacity:1;stroke-width:0.668173;stroke-linecap:round;stroke-linejoin:round"
         d="m 349.88491,118.70875 c -0.1053,-0.17038 -0.46831,-1.64037 -0.74612,-3.02142 -0.29686,-1.47564 -0.78788,-2.48092 -1.4741,-3.01797 -0.58156,-0.45514 -3.13947,-1.93384 -4.12837,-2.38658 -1.17796,-0.53929 -2.10431,-0.48071 -4.38936,0.27757 -1.04278,0.34604 -2.01602,0.62917 -2.16273,0.62917 -0.20053,0 -0.49985,-0.40362 -1.20544,-1.62547 -0.52888,-0.91586 -0.89737,-1.69547 -0.84403,-1.7858 0.0521,-0.0882 0.85387,-0.85988 1.78181,-1.7149 2.33911,-2.15529 2.32186,-2.11246 2.32186,-5.76506 0,-2.803846 0,-2.807011 -0.3746,-3.569167 -0.29715,-0.60516 -0.71596,-1.069208 -2.02621,-2.245085 -0.90836,-0.815239 -1.68074,-1.558208 -1.71638,-1.651045 -0.10392,-0.270843 1.67056,-3.288046 1.98144,-3.369066 0.1483,-0.03865 1.10406,0.205679 2.12389,0.542962 2.20062,0.727797 2.74249,0.817618 3.70007,0.613344 0.91022,-0.194173 4.37404,-2.141869 5.12826,-2.883615 0.74935,-0.736965 0.99012,-1.315452 1.43182,-3.440483 0.21002,-1.010274 0.43971,-1.989092 0.51043,-2.175147 l 0.12864,-0.338283 1.96734,0.03699 1.96733,0.03699 0.17476,0.601358 c 0.0961,0.330745 0.3211,1.307399 0.49998,2.17034 0.38463,1.855412 0.61656,2.391876 1.34374,3.108232 0.73983,0.728819 4.23622,2.691286 5.1403,2.885178 0.94385,0.20242 1.49278,0.111414 3.66866,-0.608205 1.0087,-0.333595 1.94405,-0.606539 2.07857,-0.606539 0.35007,0 2.17352,3.160929 2.00504,3.475733 -0.0657,0.122759 -0.84013,0.865177 -1.72099,1.649823 -1.27354,1.134438 -1.67862,1.583581 -1.97789,2.192986 l -0.37632,0.766362 v 2.806337 c 0,3.66026 0,3.65827 2.38149,5.81267 0.92782,0.83905 1.71389,1.59579 1.74683,1.68164 0.0329,0.0859 -0.3479,0.87024 -0.84629,1.74309 -0.63325,1.10903 -0.98796,1.5993 -1.17769,1.62783 -0.14933,0.0225 -1.13493,-0.24354 -2.19019,-0.59108 -3.04456,-1.00272 -3.39582,-0.95493 -6.61337,0.8997 -2.57794,1.48594 -2.93388,1.9491 -3.46427,4.50762 -0.17759,0.85657 -0.4015,1.82802 -0.4976,2.15877 l -0.17476,0.60135 -1.95535,0.0369 c -1.07542,0.0203 -1.98453,-0.0103 -2.0202,-0.0681 z m 4.7888,-8.85931 c 2.78276,-0.86241 4.95345,-2.72081 6.16133,-5.27484 2.68277,-5.672814 -0.40294,-12.282018 -6.49542,-13.912426 -1.19388,-0.319492 -3.76078,-0.317889 -4.94448,0.0031 -3.44871,0.935162 -6.02863,3.439213 -7.10237,6.893515 -0.44886,1.443977 -0.44886,4.035041 0,5.479021 1.15793,3.72517 4.13306,6.40359 7.87255,7.08743 1.06982,0.19563 3.45876,0.0495 4.50839,-0.27579 z"
         id="path1670" />
      <path
         style="opacity:0.952618;fill:#bc5090;fill-opacity:1;stroke-width:0.668173;stroke-linecap:round;stroke-linejoin:round"
         d="m 378.26851,87.090236 c -0.0653,-0.171765 -0.27442,-1.028697 -0.46474,-1.904296 -0.48522,-2.232618 -0.55385,-2.449372 -0.99644,-3.147227 -0.44855,-0.707215 -0.89072,-1.029655 -3.2243,-2.351191 -2.60315,-1.474181 -3.01622,-1.520753 -5.68859,-0.641371 -2.87607,0.946423 -2.55196,1.003845 -3.4952,-0.619231 -1.24473,-2.141937 -1.18369,-1.895787 -0.62391,-2.515375 0.26828,-0.296979 0.96829,-0.945015 1.55554,-1.440084 2.02938,-1.710857 2.2851,-2.397591 2.21776,-5.955446 -0.0607,-3.207165 -0.12679,-3.353975 -2.45679,-5.461082 -0.9117,-0.824468 -1.68849,-1.579475 -1.72622,-1.677789 -0.0377,-0.09831 0.34263,-0.882708 0.84521,-1.743096 l 0.91382,-1.564346 0.52083,0.02429 c 0.28644,0.01336 1.27251,0.279161 2.19125,0.590669 1.87505,0.635759 2.99297,0.731475 3.92957,0.336446 1.02759,-0.433411 3.8989,-2.154634 4.46728,-2.677919 0.75829,-0.698151 1.04219,-1.283409 1.35011,-2.783284 0.44379,-2.161649 0.57177,-2.700613 0.69911,-2.943876 0.11187,-0.213725 0.32015,-0.233712 2.08878,-0.200454 l 1.96453,0.03694 0.16865,0.668173 c 0.0928,0.367496 0.2963,1.299599 0.45228,2.071339 0.51096,2.527964 0.91463,3.052341 3.47903,4.519154 3.23853,1.852409 3.61291,1.90441 6.56815,0.91222 1.01653,-0.341286 1.98871,-0.620522 2.1604,-0.620522 0.25786,0 0.46532,0.266684 1.19197,1.532223 0.48387,0.842722 0.8798,1.614057 0.8798,1.714077 0,0.163282 -0.73483,0.905566 -2.76352,2.791561 -0.37016,0.344109 -0.81685,0.915397 -0.99267,1.269529 -0.30728,0.618887 -0.31969,0.755398 -0.31969,3.517026 0,3.737018 -0.0103,3.711856 2.38278,5.870168 0.93734,0.845399 1.6931,1.631064 1.6931,1.76008 0,0.241903 -1.34753,2.679364 -1.71326,3.099003 -0.25622,0.294005 -0.42521,0.262628 -2.80768,-0.52135 -1.88844,-0.621417 -2.55058,-0.697418 -3.52398,-0.404469 -0.73335,0.220705 -4.14346,2.140024 -4.75512,2.676337 -0.69604,0.610293 -1.09077,1.423636 -1.37385,2.83083 -0.35391,1.759313 -0.65559,2.896791 -0.82153,3.097588 -0.0983,0.119005 -0.67233,0.167045 -1.99589,0.167045 -1.82414,0 -1.85996,-0.0057 -1.97657,-0.312296 z m 3.40887,-8.383736 c 3.99433,-0.555561 7.23056,-3.420628 8.29101,-7.340139 0.32305,-1.194012 0.33089,-3.762113 0.0151,-4.944488 -0.32028,-1.199076 -1.15853,-2.852124 -1.92969,-3.805352 -2.72846,-3.372641 -7.58674,-4.596468 -11.5906,-2.91974 -1.81599,0.760497 -3.71522,2.406528 -4.73305,4.102049 -1.24172,2.068539 -1.67576,4.946444 -1.10551,7.329845 1.20521,5.036881 5.94709,8.287959 11.05276,7.577825 z"
         id="path1672" />
    </g>
    <g
       inkscape:export-ydpi="67.195503"
       inkscape:export-xdpi="67.195503"
       transform="matrix(0.87259337,0,0,0.87259337,26.63064,9.3038696)"
       id="g1771">
      <g
         style="fill:#000000"
         id="g940"
         transform="matrix(0.19666573,0,0,0.19666573,116.71905,56.242857)">
	<g
   style="fill:#000000"
   id="g938">
		<path
   style="fill:#000000"
   d="m 484.5,94.5 h 20 c 4.142,0 7.5,-3.358 7.5,-7.5 V 7.5 C 512,3.358 508.642,0 504.5,0 H 108.167 c -4.142,0 -7.5,3.358 -7.5,7.5 0,4.142 3.358,7.5 7.5,7.5 H 116 v 22.5 c 0,4.142 3.358,7.5 7.5,7.5 h 265 c 4.142,0 7.5,-3.358 7.5,-7.5 V 15 h 101 v 64.5 h -12.5 c -15.164,0 -27.5,12.336 -27.5,27.5 0,7.342 2.861,14.247 8.057,19.443 5.195,5.195 12.101,8.057 19.443,8.057 H 497 v 243 h -12.5 c -15.164,0 -27.5,12.336 -27.5,27.5 0,7.342 2.861,14.247 8.057,19.443 5.195,5.195 12.101,8.057 19.443,8.057 H 497 V 497 H 396 v -22.5 c 0,-4.142 -3.358,-7.5 -7.5,-7.5 h -36 c -4.142,0 -7.5,3.358 -7.5,7.5 0,4.142 3.358,7.5 7.5,7.5 H 381 v 15 H 131 v -15 h 189 c 4.142,0 7.5,-3.358 7.5,-7.5 0,-4.142 -3.358,-7.5 -7.5,-7.5 H 123.5 c -4.142,0 -7.5,3.358 -7.5,7.5 V 497 H 15 v -64.5 h 12.5 c 7.343,0 14.248,-2.861 19.444,-8.057 C 52.139,419.247 55,412.342 55,405 55,389.836 42.664,377.5 27.5,377.5 H 15 v -243 h 12.5 c 7.343,0 14.248,-2.861 19.444,-8.057 C 52.139,121.247 55,114.342 55,107 55,91.836 42.664,79.5 27.5,79.5 H 15 V 15 h 61 c 4.142,0 7.5,-3.358 7.5,-7.5 C 83.5,3.358 80.142,0 76,0 H 7.5 C 3.358,0 0,3.358 0,7.5 V 87 c 0,4.142 3.358,7.5 7.5,7.5 h 20 c 6.893,0 12.5,5.607 12.5,12.5 0,3.336 -1.301,6.475 -3.663,8.837 -2.362,2.362 -5.5,3.663 -8.837,3.663 H 7.5 C 3.358,119.5 0,122.858 0,127 v 258 c 0,4.142 3.358,7.5 7.5,7.5 h 20 c 6.893,0 12.5,5.607 12.5,12.5 0,3.336 -1.301,6.475 -3.663,8.837 -2.362,2.362 -5.5,3.663 -8.837,3.663 H 7.5 C 3.358,417.5 0,420.858 0,425 v 79.5 c 0,4.142 3.358,7.5 7.5,7.5 h 497 c 4.142,0 7.5,-3.358 7.5,-7.5 V 425 c 0,-4.142 -3.358,-7.5 -7.5,-7.5 h -20 c -3.336,0 -6.475,-1.301 -8.836,-3.663 C 473.301,411.475 472,408.336 472,405 c 0,-6.893 5.607,-12.5 12.5,-12.5 h 20 c 4.142,0 7.5,-3.358 7.5,-7.5 V 127 c 0,-4.142 -3.358,-7.5 -7.5,-7.5 h -20 c -3.336,0 -6.475,-1.301 -8.836,-3.663 C 473.301,113.475 472,110.336 472,107 c 0,-6.893 5.607,-12.5 12.5,-12.5 z M 381,30 H 131 V 15 h 250 z"
   id="path936" />

	</g>

</g>
      <g
         style="fill:#000000"
         id="g946"
         transform="matrix(0.19666573,0,0,0.19666573,116.71905,56.242857)">
	<g
   style="fill:#000000"
   id="g944">
		<path
   style="fill:#000000"
   d="M 48.5,23.5 C 36.093,23.5 26,33.593 26,46 26,58.407 36.093,68.5 48.5,68.5 60.907,68.5 71,58.407 71,46 71,33.593 60.907,23.5 48.5,23.5 Z m 0,30 C 44.364,53.5 41,50.136 41,46 c 0,-4.136 3.364,-7.5 7.5,-7.5 4.136,0 7.5,3.364 7.5,7.5 0,4.136 -3.364,7.5 -7.5,7.5 z"
   id="path942" />

	</g>

</g>
      <g
         style="fill:#000000"
         id="g952"
         transform="matrix(0.19666573,0,0,0.19666573,116.71905,56.242857)">
	<g
   style="fill:#000000"
   id="g950">
		<path
   style="fill:#000000"
   d="M 463.5,23.5 C 451.093,23.5 441,33.593 441,46 441,58.407 451.093,68.5 463.5,68.5 475.907,68.5 486,58.407 486,46 486,33.593 475.907,23.5 463.5,23.5 Z m 0,30 c -4.136,0 -7.5,-3.364 -7.5,-7.5 0,-4.136 3.364,-7.5 7.5,-7.5 4.136,0 7.5,3.364 7.5,7.5 0,4.136 -3.364,7.5 -7.5,7.5 z"
   id="path948" />

	</g>

</g>
      <g
         style="fill:#000000"
         id="g958"
         transform="matrix(0.19666573,0,0,0.19666573,116.71905,56.242857)">
	<g
   style="fill:#000000"
   id="g956">
		<path
   style="fill:#000000"
   d="M 48.5,444.5 C 36.093,444.5 26,454.593 26,467 26,479.407 36.093,489.5 48.5,489.5 60.907,489.5 71,479.407 71,467 71,454.593 60.907,444.5 48.5,444.5 Z m 0,30 c -4.136,0 -7.5,-3.364 -7.5,-7.5 0,-4.136 3.364,-7.5 7.5,-7.5 4.136,0 7.5,3.364 7.5,7.5 0,4.136 -3.364,7.5 -7.5,7.5 z"
   id="path954" />

	</g>

</g>
      <g
         style="fill:#000000"
         id="g964"
         transform="matrix(0.19666573,0,0,0.19666573,116.71905,56.242857)">
	<g
   style="fill:#000000"
   id="g962">
		<path
   style="fill:#000000"
   d="m 463.5,444.5 c -12.407,0 -22.5,10.093 -22.5,22.5 0,12.407 10.093,22.5 22.5,22.5 12.407,0 22.5,-10.093 22.5,-22.5 0,-12.407 -10.093,-22.5 -22.5,-22.5 z m 0,30 c -4.136,0 -7.5,-3.364 -7.5,-7.5 0,-4.136 3.364,-7.5 7.5,-7.5 4.136,0 7.5,3.364 7.5,7.5 0,4.136 -3.364,7.5 -7.5,7.5 z"
   id="path960" />

	</g>

</g>
      <g
         style="fill:#000000"
         id="g970"
         transform="matrix(0.19666573,0,0,0.19666573,116.71905,56.242857)">
	<g
   style="fill:#000000"
   id="g968">
		<path
   style="fill:#000000"
   d="M 386,118.5 H 191.667 c -4.142,0 -7.5,3.358 -7.5,7.5 0,4.142 3.358,7.5 7.5,7.5 H 378.5 v 245 h -245 v -245 H 160 c 4.142,0 7.5,-3.358 7.5,-7.5 0,-4.142 -3.358,-7.5 -7.5,-7.5 h -34 c -4.142,0 -7.5,3.358 -7.5,7.5 v 260 c 0,4.142 3.358,7.5 7.5,7.5 h 260 c 4.142,0 7.5,-3.358 7.5,-7.5 V 126 c 0,-4.142 -3.358,-7.5 -7.5,-7.5 z"
   id="path966" />

	</g>

</g>
      <g
         style="fill:#000000"
         id="g976"
         transform="matrix(0.19666573,0,0,0.19666573,116.71905,56.242857)">
	<g
   style="fill:#000000"
   id="g974">
		<path
   style="fill:#000000"
   d="m 436,153.834 c 4.142,0 7.5,-3.358 7.5,-7.5 0,-4.142 -3.358,-7.5 -7.5,-7.5 H 423.5 V 122.5 H 436 c 4.142,0 7.5,-3.358 7.5,-7.5 0,-4.142 -3.358,-7.5 -7.5,-7.5 H 423.5 V 96 c 0,-4.142 -3.358,-7.5 -7.5,-7.5 H 404.5 V 76 c 0,-4.142 -3.358,-7.5 -7.5,-7.5 -4.142,0 -7.5,3.358 -7.5,7.5 V 88.5 H 373.167 V 76 c 0,-4.142 -3.358,-7.5 -7.5,-7.5 -4.142,0 -7.5,3.358 -7.5,7.5 V 88.5 H 341.834 V 76 c 0,-4.142 -3.358,-7.5 -7.5,-7.5 -4.142,0 -7.5,3.358 -7.5,7.5 V 88.5 H 310.5 V 76 c 0,-4.142 -3.358,-7.5 -7.5,-7.5 -4.142,0 -7.5,3.358 -7.5,7.5 V 88.5 H 279.167 V 76 c 0,-4.142 -3.358,-7.5 -7.5,-7.5 -4.142,0 -7.5,3.358 -7.5,7.5 V 88.5 H 247.834 V 76 c 0,-4.142 -3.358,-7.5 -7.5,-7.5 -4.142,0 -7.5,3.358 -7.5,7.5 V 88.5 H 216.5 V 76 c 0,-4.142 -3.358,-7.5 -7.5,-7.5 -4.142,0 -7.5,3.358 -7.5,7.5 V 88.5 H 185.167 V 76 c 0,-4.142 -3.358,-7.5 -7.5,-7.5 -4.142,0 -7.5,3.358 -7.5,7.5 V 88.5 H 153.834 V 76 c 0,-4.142 -3.358,-7.5 -7.5,-7.5 -4.142,0 -7.5,3.358 -7.5,7.5 V 88.5 H 122.5 V 76 c 0,-4.142 -3.358,-7.5 -7.5,-7.5 -4.142,0 -7.5,3.358 -7.5,7.5 V 88.5 H 96 c -4.142,0 -7.5,3.358 -7.5,7.5 v 11.5 H 76 c -4.142,0 -7.5,3.358 -7.5,7.5 0,4.142 3.358,7.5 7.5,7.5 h 12.5 v 16.333 H 76 c -4.142,0 -7.5,3.358 -7.5,7.5 0,4.142 3.358,7.5 7.5,7.5 h 12.5 v 16.333 H 76 c -4.142,0 -7.5,3.358 -7.5,7.5 0,4.142 3.358,7.5 7.5,7.5 H 88.5 V 201.5 H 76 c -4.142,0 -7.5,3.358 -7.5,7.5 0,4.142 3.358,7.5 7.5,7.5 h 12.5 v 16.333 H 76 c -4.142,0 -7.5,3.358 -7.5,7.5 0,4.142 3.358,7.5 7.5,7.5 h 12.5 v 16.333 H 76 c -4.142,0 -7.5,3.358 -7.5,7.5 0,4.142 3.358,7.5 7.5,7.5 H 88.5 V 295.5 H 76 c -4.142,0 -7.5,3.358 -7.5,7.5 0,4.142 3.358,7.5 7.5,7.5 h 12.5 v 16.333 H 76 c -4.142,0 -7.5,3.358 -7.5,7.5 0,4.142 3.358,7.5 7.5,7.5 h 12.5 v 16.333 H 76 c -4.142,0 -7.5,3.358 -7.5,7.5 0,4.142 3.358,7.5 7.5,7.5 H 88.5 V 389.5 H 76 c -4.142,0 -7.5,3.358 -7.5,7.5 0,4.142 3.358,7.5 7.5,7.5 H 88.5 V 416 c 0,4.142 3.358,7.5 7.5,7.5 h 11.5 V 436 c 0,4.142 3.358,7.5 7.5,7.5 4.142,0 7.5,-3.358 7.5,-7.5 v -12.5 h 16.333 V 436 c 0,4.142 3.358,7.5 7.5,7.5 4.142,0 7.5,-3.358 7.5,-7.5 v -12.5 h 16.333 V 436 c 0,4.142 3.358,7.5 7.5,7.5 4.142,0 7.5,-3.358 7.5,-7.5 V 423.5 H 201.5 V 436 c 0,4.142 3.358,7.5 7.5,7.5 4.142,0 7.5,-3.358 7.5,-7.5 v -12.5 h 16.333 V 436 c 0,4.142 3.358,7.5 7.5,7.5 4.142,0 7.5,-3.358 7.5,-7.5 v -12.5 h 16.333 V 436 c 0,4.142 3.358,7.5 7.5,7.5 4.142,0 7.5,-3.358 7.5,-7.5 V 423.5 H 295.5 V 436 c 0,4.142 3.358,7.5 7.5,7.5 4.142,0 7.5,-3.358 7.5,-7.5 v -12.5 h 16.333 V 436 c 0,4.142 3.358,7.5 7.5,7.5 4.142,0 7.5,-3.358 7.5,-7.5 v -12.5 h 16.333 V 436 c 0,4.142 3.358,7.5 7.5,7.5 4.142,0 7.5,-3.358 7.5,-7.5 V 423.5 H 389.5 V 436 c 0,4.142 3.358,7.5 7.5,7.5 4.142,0 7.5,-3.358 7.5,-7.5 V 423.5 H 416 c 4.142,0 7.5,-3.358 7.5,-7.5 V 404.5 H 436 c 4.142,0 7.5,-3.358 7.5,-7.5 0,-4.142 -3.358,-7.5 -7.5,-7.5 H 423.5 V 373.167 H 436 c 4.142,0 7.5,-3.358 7.5,-7.5 0,-4.142 -3.358,-7.5 -7.5,-7.5 H 423.5 V 341.834 H 436 c 4.142,0 7.5,-3.358 7.5,-7.5 0,-4.142 -3.358,-7.5 -7.5,-7.5 H 423.5 V 310.5 H 436 c 4.142,0 7.5,-3.358 7.5,-7.5 0,-4.142 -3.358,-7.5 -7.5,-7.5 H 423.5 V 279.167 H 436 c 4.142,0 7.5,-3.358 7.5,-7.5 0,-4.142 -3.358,-7.5 -7.5,-7.5 H 423.5 V 247.834 H 436 c 4.142,0 7.5,-3.358 7.5,-7.5 0,-4.142 -3.358,-7.5 -7.5,-7.5 H 423.5 V 216.5 H 436 c 4.142,0 7.5,-3.358 7.5,-7.5 0,-4.142 -3.358,-7.5 -7.5,-7.5 H 423.5 V 185.167 H 436 c 4.142,0 7.5,-3.358 7.5,-7.5 0,-4.142 -3.358,-7.5 -7.5,-7.5 H 423.5 V 153.834 Z M 408.5,408.5 h -305 v -305 h 305 z"
   id="path972" />

	</g>

</g>
      <g
         style="fill:#000000"
         id="g982"
         transform="matrix(0.19666573,0,0,0.19666573,116.71905,56.242857)">
	<g
   style="fill:#000000"
   id="g980">
		<path
   style="fill:#000000"
   d="m 249.417,192.85 h -18.5 v -31 h 18.5 c 4.142,0 7.5,-3.358 7.5,-7.5 0,-4.142 -3.358,-7.5 -7.5,-7.5 h -26 c -4.142,0 -7.5,3.358 -7.5,7.5 v 46 c 0,4.142 3.358,7.5 7.5,7.5 h 26 c 4.142,0 7.5,-3.358 7.5,-7.5 0,-4.142 -3.358,-7.5 -7.5,-7.5 z"
   id="path978" />

	</g>

</g>
      <g
         style="fill:#000000"
         id="g988"
         transform="matrix(0.19666573,0,0,0.19666573,116.71905,56.242857)">
	<g
   style="fill:#000000"
   id="g986">
		<path
   style="fill:#000000"
   d="m 294.208,146.85 h -26 c -4.142,0 -7.5,3.358 -7.5,7.5 v 46 c 0,4.142 3.358,7.5 7.5,7.5 4.142,0 7.5,-3.358 7.5,-7.5 v -15.184 h 18.5 c 4.142,0 7.5,-3.358 7.5,-7.5 V 154.35 c 0,-4.142 -3.358,-7.5 -7.5,-7.5 z m -7.5,23.316 h -11 v -8.316 h 11 z"
   id="path984" />

	</g>

</g>
      <g
         style="fill:#000000"
         id="g994"
         transform="matrix(0.19666573,0,0,0.19666573,116.71905,56.242857)">
	<g
   style="fill:#000000"
   id="g992">
		<path
   style="fill:#000000"
   d="m 339,146.85 c -4.142,0 -7.5,3.358 -7.5,7.5 v 38.5 h -11 v -38.5 c 0,-4.142 -3.358,-7.5 -7.5,-7.5 -4.142,0 -7.5,3.358 -7.5,7.5 v 46 c 0,4.142 3.358,7.5 7.5,7.5 h 26 c 4.142,0 7.5,-3.358 7.5,-7.5 v -46 c 0,-4.142 -3.358,-7.5 -7.5,-7.5 z"
   id="path990" />

	</g>

</g>
      <g
         style="fill:#000000"
         id="g1000"
         transform="matrix(0.19666573,0,0,0.19666573,116.71905,56.242857)">
	<g
   style="fill:#000000"
   id="g998">
		<path
   style="fill:#000000"
   d="m 207.817,349.94 -44.981,-41.185 c -2.193,-2.007 -5.364,-2.528 -8.087,-1.332 -2.721,1.198 -4.478,3.891 -4.478,6.864 v 41.185 c 0,4.142 3.358,7.5 7.5,7.5 h 44.981 c 3.094,0 5.87,-1.899 6.991,-4.783 1.121,-2.883 0.356,-6.159 -1.926,-8.249 z m -42.546,-1.968 v -16.649 l 18.184,16.649 z"
   id="path996" />

	</g>

</g>
      <path
         style="opacity:0.952618;fill:#ff6361;fill-opacity:1;stroke-width:2.52538;stroke-linecap:round;stroke-linejoin:round"
         d="M 518.09467,402.96411 V 289.82702 H 631.23176 744.36884 V 402.96411 516.1012 H 631.23176 518.09467 Z m 211.7795,101.9916 c 1.29036,-0.35832 2.24245,-1.06158 2.9023,-2.14376 0.96374,-1.58056 0.98203,-3.4438 0.98388,-100.21868 l 0.002,-98.60817 -1.47376,-1.64947 -1.47375,-1.64947 -74.41396,-0.12722 c -72.67189,-0.12425 -74.45116,-0.10448 -76.00338,0.84479 -3.36401,2.05728 -3.37814,7.61396 -0.0245,9.65876 1.57924,0.96293 3.12286,0.98416 71.69332,0.986 l 70.07933,0.002 v 90.91373 90.91373 h -90.6612 -90.66119 v -90.91373 -90.91373 h 10.40241 c 8.80878,0 10.62106,-0.12916 11.82971,-0.84313 3.67817,-2.17275 3.67817,-7.75774 0,-9.93049 -1.24377,-0.73471 -3.29108,-0.84313 -15.92083,-0.84313 h -14.49352 l -1.71726,1.71726 -1.71726,1.71726 v 98.97734 98.97734 l 1.04193,1.3246 c 0.57306,0.72853 1.7663,1.53418 2.65165,1.79033 2.36874,0.68533 194.50786,0.70284 196.97424,0.0179 z M 595.2088,481.45523 c 0.78388,-0.58212 1.70347,-1.889 2.04354,-2.90419 1.21918,-3.63954 0.84703,-4.08012 -18.04344,-21.36151 -9.58382,-8.76748 -17.95132,-16.14538 -18.59443,-16.39533 -1.77276,-0.68898 -3.5672,-0.54802 -5.18433,0.40724 -2.86715,1.69367 -2.99036,2.52518 -2.9895,20.17531 8.6e-4,18.0633 0.12662,18.79304 3.53475,20.51461 1.60816,0.81234 3.39482,0.88074 19.78797,0.75761 17.39369,-0.13064 18.06976,-0.17215 19.44544,-1.19374 z m 34.14795,-114.89965 c 2.74799,-1.25207 3.69631,-5.43898 1.89939,-8.38599 -1.33584,-2.19083 -3.42237,-2.67643 -11.51487,-2.67983 l -6.69226,-0.003 V 344.37508 333.2634 h 7.08729 c 8.03055,0 10.05532,-0.5307 11.31445,-2.96558 1.35024,-2.61109 1.03478,-4.97303 -0.9261,-6.93391 l -1.71726,-1.71726 h -11.97031 -11.9703 l -1.71726,1.71726 -1.71726,1.71726 v 19.29391 19.29392 l 1.71726,1.71726 1.71726,1.71725 h 11.64349 c 7.29611,0 12.09266,-0.20465 12.84648,-0.54811 z m 15.12529,-0.92442 1.64947,-1.47253 0.1654,-6.86123 0.1654,-6.86122 7.41074,-0.002 c 6.51567,-0.002 7.61053,-0.1237 9.06483,-1.01039 0.90975,-0.55467 1.87571,-1.5914 2.14658,-2.30383 0.27087,-0.71231 0.49248,-5.96247 0.49248,-11.6669 v -10.37169 l -1.71726,-1.71726 -1.71726,-1.71726 h -11.9703 -11.97031 l -1.71726,1.71726 -1.71726,1.71726 v 19.29391 19.29392 l 1.71726,1.71726 c 1.45349,1.45349 2.0729,1.71725 4.03264,1.71725 1.84384,0 2.65131,-0.29989 3.96485,-1.47253 z m 52.72994,-0.26199 1.73452,-1.73452 -0.14353,-19.52055 -0.14353,-19.52056 -1.64947,-1.47335 c -2.32325,-2.07521 -5.48932,-2.07528 -7.81274,-1.8e-4 l -1.64947,1.47317 -0.14722,15.44688 -0.14723,15.44688 h -3.76711 -3.76712 v -14.67229 c 0,-15.72097 -0.12957,-16.62475 -2.63488,-18.37955 -0.61898,-0.43355 -2.12035,-0.78827 -3.33639,-0.78827 -1.841,0 -2.49832,0.28735 -3.92823,1.71726 l -1.71726,1.71726 v 18.9671 c 0,12.46204 0.18639,19.37618 0.54346,20.15986 1.21459,2.66574 2.26682,2.86739 15.03815,2.88194 l 11.79353,0.0134 z"
         id="path1729"
         transform="scale(0.26458333)" />
      <path
         style="opacity:0.952618;fill:#ff6361;fill-opacity:1;stroke-width:0.892857;stroke-linecap:round;stroke-linejoin:round"
         d="m 646.18295,336.01627 v -3.03572 h 4.01786 4.01786 v 3.03572 3.03571 h -4.01786 -4.01786 z"
         id="path1731"
         transform="scale(0.26458333)" />
      <path
         style="opacity:0.952618;fill:#ff6361;fill-opacity:1;stroke-width:0.892857;stroke-linecap:round;stroke-linejoin:round"
         d="m 564.15731,465.17929 v -6.01555 l 0.49107,0.45156 c 0.27009,0.24836 2.94196,2.68493 5.9375,5.41462 2.99554,2.72968 5.72634,5.23347 6.06845,5.56399 l 0.62203,0.60093 h -6.55953 -6.55952 z"
         id="path1733"
         transform="scale(0.26458333)" />
    </g>
  </g>
</svg>
