<svg id="Layer_1" enable-background="new 0 0 511.459 511.459" height="512" viewBox="0 0 511.459 511.459" width="512" xmlns="http://www.w3.org/2000/svg"><g><path d="m451.508 181.598c24.126-46.248-16.809-95.449-63.58-86.284.477-22.522-12.718-47.139-33.504-58.471-24.111-13.854-53.591-11.075-74.523 5.428-12.646-27.644-41.875-45.218-73.499-41.862-29.645 3.139-53.229 23.577-61.563 50.419-7.853-4.153-16.515-6.771-25.591-7.647-36.087-4.308-72.607 24.855-75.219 62.115-1.141 12.102.856 23.97 5.705 34.711-28.767 10.365-49.392 37.935-49.392 70.229v.641c0 41.143 33.473 74.616 74.616 74.616h74.563c9.138 15.358 24.639 26.493 42.844 29.763l-6.799 24.314c-1.264 4.519-.34 9.368 2.496 13.106s7.258 5.934 11.95 5.934h40.595l-31.984 134.376c-1.676 7.041 1.915 14.274 8.536 17.196 1.958.864 4.017 1.278 6.05 1.278 4.841 0 9.54-2.349 12.407-6.562l81.643-119.966c55.651 20.583 113.75-14.785 123.333-68.669h2.96c37.255 0 67.564-30.31 67.564-67.565.001-34.566-26.086-63.152-59.608-67.1zm-180.141 152.713c-2.845-3.601-7.181-5.702-11.771-5.702h-39.814l30.375-108.62h67.66l-27.921 65.575c-1.973 4.633-1.489 9.948 1.288 14.148 2.777 4.201 7.477 6.728 12.513 6.728h30.69l-77.701 114.174 17.502-73.532c1.063-4.465.024-9.17-2.821-12.771zm78.213 26.569c-4.663 0-9.655-.664-14.661-1.898l29.073-42.72h45.895c-6.986 25.638-31.373 44.618-60.307 44.618zm93.973-74.618c-12.422-.007-53.998.002-66.735 0-.23-.625-.501-1.239-.818-1.837-2.599-4.913-7.701-7.985-13.259-7.985h-36.353l27.921-65.575c1.973-4.633 1.489-9.948-1.288-14.148-2.777-4.201-7.477-6.728-12.513-6.728h-101.731c-6.729 0-12.634 4.48-14.446 10.96l-23.818 85.172c-16.674-1.508-29.784-15.556-29.784-32.616 0-8.284-6.716-15-15-15s-15 6.716-15 15c0 .666.03 1.326.05 1.987h-65.82c-24.602 0-44.616-20.015-44.616-44.616v-.641c0-24.602 20.015-44.616 44.616-44.616 11.602.348 19.87-14.807 11.366-24.788l-3.177-3.689c-6.967-8.091-10.252-18.401-9.25-29.031 1.001-10.63 6.155-20.146 14.511-26.792 16.494-13.122 40.131-10.838 53.81 5.2l3.381 3.963c8.326 10.349 27.259 3.85 26.381-10.701l-.297-4.605c-1.47-22.791 15.169-42.527 37.88-44.932 22.432-2.374 42.806 13.215 46.371 35.495l1.652 10.327c1.604 12.116 18.712 17.324 26.871 6.551l7.222-9.763c11.086-14.987 31.637-19.287 47.8-9.997 8.651 4.971 14.783 13.031 17.265 22.695s.994 19.68-4.19 28.206c-10.683 14.359 5.626 31.135 19.752 22.473l10.92-7.181c13.297-8.744 30.876-5.388 40.019 7.639 4.635 6.606 6.321 14.603 4.745 22.517-1.576 7.915-6.195 14.656-13.007 18.983-21.274 9.321-19.138 30.584-.277 32.946h28.847c51.865 3.123 47.565 73.905-.001 75.127z"/><path d="m242.833 123.097c-1.648-.337-16.656-3.196-35.55.239-26.17 4.758-46.94 19.257-60.067 41.93-4.151 7.169-1.704 16.346 5.466 20.497 2.367 1.37 4.951 2.021 7.501 2.021 5.177 0 10.215-2.684 12.996-7.487 20.606-35.591 61.795-28.164 63.708-27.795 8.09 1.618 15.981-3.609 17.637-11.703 1.659-8.116-3.575-16.042-11.691-17.702z"/></g></svg>