<svg id="Layer_5" enable-background="new 0 0 64 64" height="512" viewBox="0 0 64 64" width="512" xmlns="http://www.w3.org/2000/svg"><g><path d="m40 35c-.395 0-.77.081-1.116.22-.345-1.275-1.501-2.22-2.884-2.22-.771 0-1.468.301-2 .78-.532-.48-1.229-.78-2-.78-.352 0-.686.072-1 .184v-2.184h4.777l.713-2.802c.319-.119.639-.253.956-.4l2.489 1.479 5.342-5.342-1.48-2.489c.147-.317.281-.638.4-.956l2.803-.713v-7.555l-2.802-.713c-.119-.318-.252-.639-.4-.956l1.48-2.489-5.342-5.342-2.489 1.479c-.317-.147-.637-.281-.956-.4l-.714-2.801h-7.555l-.712 2.802c-.319.119-.639.253-.956.4l-2.489-1.479-5.342 5.342 1.48 2.489c-.147.317-.281.638-.4.956l-2.803.713v7.555l2.802.713c.119.318.252.639.4.956l-1.48 2.489 5.342 5.342.936-.557v8.536c-1.341-1.411-3.244-2.299-5.381-2.299-1.443 0-2.618 1.174-2.619 2.618 0 .404.096.81.276 1.171l1.166 2.331c.365.731.558 1.548.558 2.364v4.108c0 1.074.252 2.15.73 3.112l2.27 4.572v1.95c-1.161.414-2 1.514-2 2.816v3h22v-3c0-1.302-.839-2.402-2-2.816v-1.851l1.6-2.133c.903-1.203 1.4-2.694 1.4-4.2v-11c0-1.654-1.346-3-3-3zm-12.768-13.888c-1.42-1.323-2.232-3.153-2.232-5.112 0-3.859 3.14-7 7-7s7 3.141 7 7-3.14 7-7 7c-.413 0-.819-.049-1.221-.119-.445-1.101-1.521-1.881-2.779-1.881-.267 0-.521.046-.768.112zm-2.853 5.652-3.143-3.143 1.246-2.095-.254-.492c-.289-.56-.525-1.126-.704-1.686l-.169-.528-2.355-.597v-4.445l2.354-.598.169-.528c.179-.56.415-1.126.704-1.686l.254-.492-1.246-2.095 3.143-3.143 2.096 1.246.493-.256c.558-.288 1.124-.525 1.683-.704l.528-.168.599-2.354h4.445l.599 2.354.528.168c.559.179 1.125.416 1.683.704l.493.256 2.096-1.246 3.143 3.143-1.246 2.095.254.492c.289.56.525 1.126.704 1.686l.169.528 2.355.597v4.445l-2.354.598-.169.528c-.179.56-.415 1.126-.704 1.686l-.254.492 1.246 2.095-3.143 3.143-2.096-1.246-.493.256c-.558.288-1.124.525-1.683.704l-.528.168-.599 2.354h-3.223v-4.063c.331.036.665.063 1 .063 4.962 0 9-4.037 9-9s-4.038-9-9-9-9 4.037-9 9c0 2.373.922 4.601 2.554 6.274-.346.489-.554 1.082-.554 1.726v2.395zm15.621 34.236h-18v-1c0-.552.449-1 1-1h16c.551 0 1 .448 1 1zm1-12c0 1.075-.355 2.141-1 3l-2 2.667v2.333h-14v-2.234l-2.479-4.991c-.341-.688-.521-1.458-.521-2.224v-4.108c0-1.126-.266-2.252-.769-3.259l-1.166-2.331c-.043-.085-.065-.181-.065-.276 0-.342.278-.619.714-.619 2.915.001 5.286 2.373 5.286 5.287v1.713 2h2v-2-1.713-18.245c0-.552.449-1 1-1s1 .448 1 1v12 4h2v-4c0-.552.449-1 1-1s1 .448 1 1v4h2v-4c0-.552.449-1 1-1s1 .448 1 1v2 2h2v-2c0-.552.449-1 1-1s1 .448 1 1z"/><path d="m32 21c2.757 0 5-2.243 5-5s-2.243-5-5-5-5 2.243-5 5 2.243 5 5 5zm0-8c1.654 0 3 1.346 3 3s-1.346 3-3 3-3-1.346-3-3 1.346-3 3-3z"/><path d="m57.4 52.8 1.6 1.2h-12v-24h-2v26h14l-1.6 1.2 1.2 1.6 5.067-3.8-5.067-3.8z"/><path d="m57.4 41.8 1.6 1.2h-8v-15h-2v17h10l-1.6 1.2 1.2 1.6 5.067-3.8-5.067-3.8z"/><path d="m57.4 35.2 1.2 1.6 5.067-3.8-5.067-3.8-1.2 1.6 1.6 1.2h-4v-6h-2v8h6z"/><path d="m45 26h2v2h-2z"/><path d="m49 24h2v2h-2z"/><path d="m53 22h2v2h-2z"/><path d="m6.6 46.2-1.6-1.2h6v-17h-2v15h-4l1.6-1.2-1.2-1.6-5.067 3.8 5.067 3.8z"/><path d="m13 54h-8l1.6-1.2-1.2-1.6-5.067 3.8 5.067 3.8 1.2-1.6-1.6-1.2h10v-26h-2z"/><path d="m13 26h2v2h-2z"/><path d="m9 24h2v2h-2z"/></g></svg>